<svg width="121" height="39" viewBox="0 0 121 39" fill="none" xmlns="http://www.w3.org/2000/svg">
<path d="M25.5101 31.4238L26.4221 31.3433V30.4277V24.8658V23.8033L25.3616 23.8676C23.5479 23.9775 22.0259 24.0738 20.7961 24.1564L20.7946 24.1565C19.6015 24.2385 18.6238 24.2926 17.8584 24.3196L17.8571 24.3196L15.5985 24.402C14.8519 24.4293 14.1325 24.4565 13.4404 24.4838H13.4397H13.4356H13.4315H13.4275H13.4234H13.4193H13.4152H13.4112H13.4071H13.403H13.399H13.3949H13.3908H13.3868H13.3827H13.3787H13.3746H13.3705H13.3665H13.3624H13.3584H13.3543H13.3503H13.3462H13.3422H13.3381H13.3341H13.33H13.326H13.322H13.3179H13.3139H13.3098H13.3058H13.3018H13.2977H13.2937H13.2897H13.2856H13.2816H13.2776H13.2736H13.2695H13.2655H13.2615H13.2575H13.2534H13.2494H13.2454H13.2414H13.2374H13.2334H13.2294H13.2253H13.2213H13.2173H13.2133H13.2093H13.2053H13.2013H13.1973H13.1933H13.1893H13.1853H13.1813H13.1773H13.1733H13.1693H13.1653H13.1613H13.1573H13.1534H13.1494H13.1454H13.1414H13.1374H13.1334H13.1295H13.1255H13.1215H13.1175H13.1136H13.1096H13.1056H13.1016H13.0977H13.0937H13.0897H13.0858H13.0818H13.0778H13.0739H13.0699H13.0659H13.062H13.058H13.0541H13.0501H13.0462H13.0422H13.0383H13.0343H13.0304H13.0264H13.0225H13.0185H13.0146H13.0106H13.0067H13.0028H12.9988H12.9949H12.9909H12.987H12.9831H12.9791H12.9752H12.9713H12.9674H12.9634H12.9595H12.9556H12.9517H12.9477H12.9438H12.9399H12.936H12.9321H12.9281H12.9242H12.9203H12.9164H12.9125H12.9086H12.9047H12.9008H12.8969H12.893H12.8891H12.8852H12.8813H12.8774H12.8735H12.8696H12.8657H12.8618H12.8579H12.854H12.8501H12.8462H12.8423H12.8384H12.8346H12.8307H12.8268H12.8229H12.819H12.8152H12.8113H12.8074H12.8035H12.7997H12.7958H12.7919H12.788H12.7842H12.7803H12.7764H12.7726H12.7687H12.7649H12.761H12.7571H12.7533H12.7494H12.7456H12.7417H12.7379H12.734H12.7302H12.7263H12.7225H12.7186H12.7148H12.7109H12.7071H12.7032H12.6994H12.6956H12.6917H12.6879H12.6841H12.6802H12.6764H12.6726H12.6687H12.6649H12.6611H12.6572H12.6534H12.6496H12.6458H12.642H12.6381H12.6343H12.6305H12.6267H12.6229H12.6191H12.6152H12.6114H12.6076H12.6038H12.6H12.5962H12.5924H12.5886H12.5848H12.581H12.5772H12.5734H12.5696H12.5658H12.562H12.5582H12.5544H12.5506H12.5468H12.5431H12.5393H12.5355H12.5317H12.5279H12.5241H12.5204H12.5166H12.5128H12.509H12.5053H12.5015H12.4977H12.4939H12.4902H12.4864H12.4826H12.4789H12.4751H12.4713H12.4676H12.4638H12.4601H12.4563H12.4525H12.4488H12.445H12.4413H12.4375H12.4338H12.43H12.4263H12.4225H12.4188H12.415H12.4113H12.4075H12.4038H12.4001H12.3963H12.3926H12.3889H12.3851H12.3814H12.3777H12.3739H12.3702H12.3665H12.3627H12.359H12.3553H12.3516H12.3479H12.3441H12.3404H12.3367H12.333H12.3293H12.3256H12.3218H12.3181H12.3144H12.3107H12.307H12.3033H12.2996H12.2959H12.2922H12.2885H12.2848H12.2811H12.2774H12.2737H12.27H12.2663H12.2626H12.2589H12.2552H12.2515H12.2479H12.2442H12.2405H12.2368H12.2331H12.2294H12.2258H12.2221H12.2184H12.2147H12.2111H12.2074H12.2037H12.2H12.1964H12.1927H12.189H12.1854H12.1817H12.1781H12.1744H12.1707H12.1671H12.1634H12.1598H12.1561H12.1524H12.1488H12.1451H12.1415H12.1378H12.1342H12.1306H12.1269H12.1233H12.1196H12.116H12.1123H12.1087H12.1051H12.1014H12.0978H12.0942H12.0905H12.0869H12.0833H12.0796H12.076H12.0724H12.0688H12.0651H12.0615H12.0579H12.0543H12.0507H12.047H12.0434H12.0398H12.0362H12.0326H12.029H12.0254H12.0218H12.0182H12.0146H12.011H12.0073H12.0037H12.0001H11.9965H11.993H11.9894H11.9858H11.9822H11.9786H11.975H11.9714H11.9678H11.9642H11.9606H11.957H11.9535H11.9499H11.9463H11.9427H11.9391H11.9356H11.932H11.9284H11.9248H11.9213H11.9177H11.9141H11.9106H11.907H11.9034H11.8999H11.8963H11.8927H11.8892H11.8856H11.8821H11.8785H11.8749H11.8714H11.8678H11.8643H11.8607H11.8572H11.8536H11.8501H11.8465H11.843H11.8395H11.8359H11.8324H11.8288H11.8253H11.8218H11.8182H11.8147H11.8112H11.8076H11.8041H11.8006H11.7971H11.7935H11.79H11.7865H11.783H11.7794H11.7759H11.7724H11.7689H11.7654H11.7618H11.7583H11.7548H11.7513H11.7478H11.7443H11.7408H11.7373H11.7338H11.7303H11.7268H11.7233H11.7198H11.7163H11.7128H11.7093H11.7058H11.7023H11.6988H11.6953H11.6918H11.6883H11.6849H11.6814H11.6779H11.6744H11.6709H11.6674H11.664H11.6605H11.657H11.6535H11.6501H11.6466H11.6431H11.6396H11.6362H11.6327H11.6292H11.6258H11.6223H11.6188H11.6154H11.6119H11.6085H11.605H11.6016H11.5981H11.5946H11.5912H11.5877H11.5843H11.5808H11.5774H11.574H11.5705H11.5671H11.5636H11.5602H11.5567H11.5533H11.5499H11.5464H11.543H11.5396H11.5361C11.1899 24.4838 10.9573 24.3904 10.7757 24.2354C10.6335 24.0719 10.5285 23.8306 10.5285 23.4238V10.2399C10.5285 9.57391 10.6964 9.25724 10.8577 9.09835C11.0218 8.93672 11.3519 8.76794 12.038 8.76794H25.4221H26.4221V7.76794V2V1H25.4221H10.365C7.31702 1 4.87101 1.68222 3.26402 3.26517C1.67825 4.82722 1 7.23604 1 10.2399V23.4238C1 26.2518 1.67196 28.5419 3.2222 30.0689L3.92396 29.3565L3.2222 30.0689C4.76928 31.5929 7.08502 32.2517 9.94678 32.2517C14.086 32.2517 19.2762 31.9745 25.5101 31.4238ZM54.2864 31.8397H55.2864V30.8397V2V1H54.2864H28.773H27.773V2V30.8397V31.8397H28.773H36.3015H37.3015V30.8397V8.76794H45.7578V30.8397V31.8397H46.7578H54.2864ZM84.8383 31.8397H85.8383V30.8397V2V1H84.8383H76.8916H76.3088L76.0215 1.50702L67.8535 15.9225V2V1H66.8535H59.325H58.325V2V30.8397V31.8397H59.325H67.2718H67.8545L68.1418 31.3327L76.3098 16.9172V30.8397V31.8397H77.3098H84.8383Z" fill="#3C9D63" stroke="white" stroke-width="2"/>
<mask id="path-2-outside-1_18_14" maskUnits="userSpaceOnUse" x="14.2604" y="18.0493" width="107" height="21" fill="black">
<rect fill="white" x="14.2604" y="18.0493" width="107" height="21"/>
<path d="M28.4494 20.0493C28.8478 20.0493 29.5648 20.1278 30.6005 20.2848V23.463H29.6445C29.4055 23.463 29.1904 23.5415 28.9992 23.6984C28.808 23.8397 28.6645 23.9966 28.5689 24.1693L26.2984 28.407L30.959 36.7646H26.4179L22.7134 30.0549H20.5624V36.7646H16.2604V20.2848H20.5624V26.759H22.7134L25.1034 22.2859C25.454 21.6267 25.8842 21.0931 26.394 20.685C26.9198 20.2612 27.605 20.0493 28.4494 20.0493Z"/>
<path d="M33.5833 37C32.8982 37 32.1015 36.9215 31.1933 36.7646V33.704H32.1493C32.7548 33.704 33.0734 33.3901 33.1053 32.7623L33.5833 24.287H45.0553V36.7646H40.8728V27.4653H37.5268L37.1683 33.4686C37.1046 34.5359 36.7461 35.3913 36.0928 36.0348C35.4395 36.6783 34.603 37 33.5833 37Z"/>
<path d="M55.6825 24.287H60.104V36.7646H55.9215V29.9372L51.8585 36.7646H47.437V24.287H51.6195V31.1144L55.6825 24.287Z"/>
<path d="M70.9757 28.8778V24.287H75.1583V36.7646H70.9757V32.0561H66.6737V36.7646H62.4912V24.287H66.6737V28.8778H70.9757Z"/>
<path d="M85.791 24.287H90.2125V36.7646H86.03V29.9372L81.967 36.7646H77.5455V24.287H81.728V31.1144L85.791 24.287Z"/>
<path d="M98.5748 32.0561H96.7822V36.7646H92.5997V24.287H96.7822V28.8778H98.6943L100.009 26.2881C100.487 25.2836 101.236 24.6009 102.255 24.2399C102.622 24.1144 102.972 24.0516 103.307 24.0516C103.849 24.0516 104.343 24.0908 104.789 24.1693L105.386 24.287V27.4653H104.55C104.008 27.4653 103.61 27.7007 103.355 28.1715L102.16 30.5258L105.745 36.7646H101.204L98.5748 32.0561Z"/>
<path d="M111.949 33.704C112.794 33.704 113.75 33.5471 114.817 33.2332V31.8206H111.352C111.113 31.8206 110.914 31.8991 110.754 32.0561C110.595 32.213 110.515 32.4092 110.515 32.6446V32.8801C110.515 33.1155 110.595 33.3117 110.754 33.4686C110.914 33.6256 111.113 33.704 111.352 33.704H111.949ZM107.528 24.5224C110.444 24.2085 113.073 24.0516 115.415 24.0516C116.498 24.0516 117.367 24.3733 118.02 25.0168C118.673 25.6603 119 26.5157 119 27.583V36.7646H115.295L115.056 35.5875C114.308 36.074 113.535 36.435 112.738 36.6704C111.957 36.8901 111.296 37 110.754 37H109.918C108.834 37 107.966 36.6783 107.313 36.0348C106.66 35.3913 106.333 34.5359 106.333 33.4686V32.4092C106.333 31.3419 106.66 30.4866 107.313 29.8431C107.966 29.1996 108.834 28.8778 109.918 28.8778H114.817V27.9361C114.817 27.7007 114.738 27.5045 114.578 27.3475C114.419 27.1906 114.22 27.1121 113.981 27.1121C112.945 27.1121 111.798 27.1592 110.539 27.2534C109.297 27.3475 108.293 27.4182 107.528 27.4653V24.5224Z"/>
</mask>
<path d="M28.4494 20.0493C28.8478 20.0493 29.5648 20.1278 30.6005 20.2848V23.463H29.6445C29.4055 23.463 29.1904 23.5415 28.9992 23.6984C28.808 23.8397 28.6645 23.9966 28.5689 24.1693L26.2984 28.407L30.959 36.7646H26.4179L22.7134 30.0549H20.5624V36.7646H16.2604V20.2848H20.5624V26.759H22.7134L25.1034 22.2859C25.454 21.6267 25.8842 21.0931 26.394 20.685C26.9198 20.2612 27.605 20.0493 28.4494 20.0493Z" fill="#3C9D63"/>
<path d="M33.5833 37C32.8982 37 32.1015 36.9215 31.1933 36.7646V33.704H32.1493C32.7548 33.704 33.0734 33.3901 33.1053 32.7623L33.5833 24.287H45.0553V36.7646H40.8728V27.4653H37.5268L37.1683 33.4686C37.1046 34.5359 36.7461 35.3913 36.0928 36.0348C35.4395 36.6783 34.603 37 33.5833 37Z" fill="#3C9D63"/>
<path d="M55.6825 24.287H60.104V36.7646H55.9215V29.9372L51.8585 36.7646H47.437V24.287H51.6195V31.1144L55.6825 24.287Z" fill="#3C9D63"/>
<path d="M70.9757 28.8778V24.287H75.1583V36.7646H70.9757V32.0561H66.6737V36.7646H62.4912V24.287H66.6737V28.8778H70.9757Z" fill="#3C9D63"/>
<path d="M85.791 24.287H90.2125V36.7646H86.03V29.9372L81.967 36.7646H77.5455V24.287H81.728V31.1144L85.791 24.287Z" fill="#3C9D63"/>
<path d="M98.5748 32.0561H96.7822V36.7646H92.5997V24.287H96.7822V28.8778H98.6943L100.009 26.2881C100.487 25.2836 101.236 24.6009 102.255 24.2399C102.622 24.1144 102.972 24.0516 103.307 24.0516C103.849 24.0516 104.343 24.0908 104.789 24.1693L105.386 24.287V27.4653H104.55C104.008 27.4653 103.61 27.7007 103.355 28.1715L102.16 30.5258L105.745 36.7646H101.204L98.5748 32.0561Z" fill="#3C9D63"/>
<path d="M111.949 33.704C112.794 33.704 113.75 33.5471 114.817 33.2332V31.8206H111.352C111.113 31.8206 110.914 31.8991 110.754 32.0561C110.595 32.213 110.515 32.4092 110.515 32.6446V32.8801C110.515 33.1155 110.595 33.3117 110.754 33.4686C110.914 33.6256 111.113 33.704 111.352 33.704H111.949ZM107.528 24.5224C110.444 24.2085 113.073 24.0516 115.415 24.0516C116.498 24.0516 117.367 24.3733 118.02 25.0168C118.673 25.6603 119 26.5157 119 27.583V36.7646H115.295L115.056 35.5875C114.308 36.074 113.535 36.435 112.738 36.6704C111.957 36.8901 111.296 37 110.754 37H109.918C108.834 37 107.966 36.6783 107.313 36.0348C106.66 35.3913 106.333 34.5359 106.333 33.4686V32.4092C106.333 31.3419 106.66 30.4866 107.313 29.8431C107.966 29.1996 108.834 28.8778 109.918 28.8778H114.817V27.9361C114.817 27.7007 114.738 27.5045 114.578 27.3475C114.419 27.1906 114.22 27.1121 113.981 27.1121C112.945 27.1121 111.798 27.1592 110.539 27.2534C109.297 27.3475 108.293 27.4182 107.528 27.4653V24.5224Z" fill="#3C9D63"/>
<path d="M28.4494 20.0493C28.8478 20.0493 29.5648 20.1278 30.6005 20.2848V23.463H29.6445C29.4055 23.463 29.1904 23.5415 28.9992 23.6984C28.808 23.8397 28.6645 23.9966 28.5689 24.1693L26.2984 28.407L30.959 36.7646H26.4179L22.7134 30.0549H20.5624V36.7646H16.2604V20.2848H20.5624V26.759H22.7134L25.1034 22.2859C25.454 21.6267 25.8842 21.0931 26.394 20.685C26.9198 20.2612 27.605 20.0493 28.4494 20.0493Z" stroke="white" stroke-width="4" mask="url(#path-2-outside-1_18_14)"/>
<path d="M33.5833 37C32.8982 37 32.1015 36.9215 31.1933 36.7646V33.704H32.1493C32.7548 33.704 33.0734 33.3901 33.1053 32.7623L33.5833 24.287H45.0553V36.7646H40.8728V27.4653H37.5268L37.1683 33.4686C37.1046 34.5359 36.7461 35.3913 36.0928 36.0348C35.4395 36.6783 34.603 37 33.5833 37Z" stroke="white" stroke-width="4" mask="url(#path-2-outside-1_18_14)"/>
<path d="M55.6825 24.287H60.104V36.7646H55.9215V29.9372L51.8585 36.7646H47.437V24.287H51.6195V31.1144L55.6825 24.287Z" stroke="white" stroke-width="4" mask="url(#path-2-outside-1_18_14)"/>
<path d="M70.9757 28.8778V24.287H75.1583V36.7646H70.9757V32.0561H66.6737V36.7646H62.4912V24.287H66.6737V28.8778H70.9757Z" stroke="white" stroke-width="4" mask="url(#path-2-outside-1_18_14)"/>
<path d="M85.791 24.287H90.2125V36.7646H86.03V29.9372L81.967 36.7646H77.5455V24.287H81.728V31.1144L85.791 24.287Z" stroke="white" stroke-width="4" mask="url(#path-2-outside-1_18_14)"/>
<path d="M98.5748 32.0561H96.7822V36.7646H92.5997V24.287H96.7822V28.8778H98.6943L100.009 26.2881C100.487 25.2836 101.236 24.6009 102.255 24.2399C102.622 24.1144 102.972 24.0516 103.307 24.0516C103.849 24.0516 104.343 24.0908 104.789 24.1693L105.386 24.287V27.4653H104.55C104.008 27.4653 103.61 27.7007 103.355 28.1715L102.16 30.5258L105.745 36.7646H101.204L98.5748 32.0561Z" stroke="white" stroke-width="4" mask="url(#path-2-outside-1_18_14)"/>
<path d="M111.949 33.704C112.794 33.704 113.75 33.5471 114.817 33.2332V31.8206H111.352C111.113 31.8206 110.914 31.8991 110.754 32.0561C110.595 32.213 110.515 32.4092 110.515 32.6446V32.8801C110.515 33.1155 110.595 33.3117 110.754 33.4686C110.914 33.6256 111.113 33.704 111.352 33.704H111.949ZM107.528 24.5224C110.444 24.2085 113.073 24.0516 115.415 24.0516C116.498 24.0516 117.367 24.3733 118.02 25.0168C118.673 25.6603 119 26.5157 119 27.583V36.7646H115.295L115.056 35.5875C114.308 36.074 113.535 36.435 112.738 36.6704C111.957 36.8901 111.296 37 110.754 37H109.918C108.834 37 107.966 36.6783 107.313 36.0348C106.66 35.3913 106.333 34.5359 106.333 33.4686V32.4092C106.333 31.3419 106.66 30.4866 107.313 29.8431C107.966 29.1996 108.834 28.8778 109.918 28.8778H114.817V27.9361C114.817 27.7007 114.738 27.5045 114.578 27.3475C114.419 27.1906 114.22 27.1121 113.981 27.1121C112.945 27.1121 111.798 27.1592 110.539 27.2534C109.297 27.3475 108.293 27.4182 107.528 27.4653V24.5224Z" stroke="white" stroke-width="4" mask="url(#path-2-outside-1_18_14)"/>
</svg>
