<svg width="366" height="117" viewBox="0 0 366 117" fill="none" xmlns="http://www.w3.org/2000/svg">
<path d="M76.4883 94.3977L78.7672 94.1954V91.9075V74.9039V72.247L76.1152 72.4085C70.5974 72.7446 65.9676 73.0388 62.2273 73.2912L62.2234 73.2915C58.59 73.5424 55.6086 73.7083 53.2716 73.7909L53.2683 73.791L49.8322 73.917L46.3961 74.0429C44.1209 74.1264 41.929 74.2098 39.8205 74.2932H39.8204H39.8079H39.7955H39.7831H39.7707H39.7583H39.746H39.7336H39.7212H39.7088H39.6964H39.6841H39.6717H39.6593H39.647H39.6346H39.6223H39.6099H39.5976H39.5852H39.5729H39.5606H39.5482H39.5359H39.5236H39.5113H39.4989H39.4866H39.4743H39.462H39.4497H39.4374H39.4251H39.4129H39.4006H39.3883H39.376H39.3638H39.3515H39.3392H39.327H39.3147H39.3025H39.2902H39.278H39.2657H39.2535H39.2413H39.229H39.2168H39.2046H39.1924H39.1802H39.1679H39.1557H39.1435H39.1313H39.1192H39.107H39.0948H39.0826H39.0704H39.0582H39.0461H39.0339H39.0217H39.0096H38.9974H38.9853H38.9731H38.961H38.9489H38.9367H38.9246H38.9125H38.9003H38.8882H38.8761H38.864H38.8519H38.8398H38.8277H38.8156H38.8035H38.7914H38.7793H38.7672H38.7552H38.7431H38.731H38.719H38.7069H38.6948H38.6828H38.6707H38.6587H38.6467H38.6346H38.6226H38.6106H38.5985H38.5865H38.5745H38.5625H38.5505H38.5385H38.5265H38.5145H38.5025H38.4905H38.4785H38.4665H38.4545H38.4425H38.4306H38.4186H38.4066H38.3947H38.3827H38.3708H38.3588H38.3469H38.3349H38.323H38.3111H38.2991H38.2872H38.2753H38.2634H38.2515H38.2396H38.2276H38.2157H38.2038H38.192H38.1801H38.1682H38.1563H38.1444H38.1325H38.1207H38.1088H38.0969H38.0851H38.0732H38.0614H38.0495H38.0377H38.0258H38.014H38.0022H37.9903H37.9785H37.9667H37.9549H37.9431H37.9313H37.9195H37.9077H37.8959H37.8841H37.8723H37.8605H37.8487H37.8369H37.8252H37.8134H37.8016H37.7899H37.7781H37.7664H37.7546H37.7429H37.7311H37.7194H37.7076H37.6959H37.6842H37.6725H37.6607H37.649H37.6373H37.6256H37.6139H37.6022H37.5905H37.5788H37.5671H37.5554H37.5438H37.5321H37.5204H37.5087H37.4971H37.4854H37.4738H37.4621H37.4505H37.4388H37.4272H37.4155H37.4039H37.3923H37.3806H37.369H37.3574H37.3458H37.3342H37.3226H37.311H37.2994H37.2878H37.2762H37.2646H37.253H37.2414H37.2299H37.2183H37.2067H37.1952H37.1836H37.172H37.1605H37.1489H37.1374H37.1259H37.1143H37.1028H37.0913H37.0797H37.0682H37.0567H37.0452H37.0337H37.0222H37.0107H36.9992H36.9877H36.9762H36.9647H36.9532H36.9417H36.9303H36.9188H36.9073H36.8959H36.8844H36.8729H36.8615H36.85H36.8386H36.8272H36.8157H36.8043H36.7929H36.7814H36.77H36.7586H36.7472H36.7358H36.7244H36.713H36.7016H36.6902H36.6788H36.6674H36.656H36.6447H36.6333H36.6219H36.6105H36.5992H36.5878H36.5765H36.5651H36.5538H36.5424H36.5311H36.5198H36.5084H36.4971H36.4858H36.4745H36.4631H36.4518H36.4405H36.4292H36.4179H36.4066H36.3953H36.384H36.3728H36.3615H36.3502H36.3389H36.3277H36.3164H36.3051H36.2939H36.2826H36.2714H36.2601H36.2489H36.2377H36.2264H36.2152H36.204H36.1927H36.1815H36.1703H36.1591H36.1479H36.1367H36.1255H36.1143H36.1031H36.0919H36.0807H36.0696H36.0584H36.0472H36.036H36.0249H36.0137H36.0026H35.9914H35.9803H35.9691H35.958H35.9468H35.9357H35.9246H35.9135H35.9023H35.8912H35.8801H35.869H35.8579H35.8468H35.8357H35.8246H35.8135H35.8024H35.7913H35.7803H35.7692H35.7581H35.747H35.736H35.7249H35.7139H35.7028H35.6918H35.6807H35.6697H35.6586H35.6476H35.6366H35.6256H35.6145H35.6035H35.5925H35.5815H35.5705H35.5595H35.5485H35.5375H35.5265H35.5155H35.5046H35.4936H35.4826H35.4716H35.4607H35.4497H35.4387H35.4278H35.4168H35.4059H35.395H35.384H35.3731H35.3622H35.3512H35.3403H35.3294H35.3185H35.3076H35.2966H35.2857H35.2748H35.264H35.2531H35.2422H35.2313H35.2204H35.2095H35.1987H35.1878H35.1769H35.1661H35.1552H35.1444H35.1335H35.1227H35.1118H35.101H35.0901H35.0793H35.0685H35.0577H35.0468H35.036H35.0252H35.0144H35.0036H34.9928H34.982H34.9712H34.9604H34.9497H34.9389H34.9281H34.9173H34.9066H34.8958H34.885H34.8743H34.8635H34.8528H34.842H34.8313H34.8206H34.8098H34.7991H34.7884H34.7777H34.7669H34.7562H34.7455H34.7348H34.7241H34.7134H34.7027H34.692H34.6813H34.6707H34.66H34.6493H34.6386H34.628H34.6173H34.6066H34.596H34.5853H34.5747H34.564H34.5534H34.5428H34.5321H34.5215H34.5109H34.5003H34.4897H34.479H34.4684H34.4578H34.4472H34.4366H34.426H34.4154H34.4049H34.3943H34.3837H34.3731H34.3626H34.352H34.3414H34.3309H34.3203H34.3098H34.2992H34.2887H34.2781H34.2676H34.2571H34.2466H34.236H34.2255H34.215H34.2045H34.194H34.1835H34.173H34.1625H34.152H34.1415H34.131H34.1205H34.1101H34.0996H34.0891H34.0786H34.0682H34.0577H34.0473H34.0368H34.0264H34.0159C32.8319 74.2932 31.9894 73.961 31.3235 73.378C30.7729 72.7578 30.4073 71.8742 30.4073 70.4955V30.1906C30.4073 28.0635 30.9421 26.9259 31.5749 26.2996C32.2124 25.6686 33.3767 25.1334 35.5431 25.1334H76.2672H78.7672V22.6334V5V2.5H76.2672H30.4526C21.2409 2.5 13.9664 4.57406 9.22276 9.26886C4.54999 13.8935 2.5 21.0768 2.5 30.1906V70.4955C2.5 79.0624 4.52652 85.8877 9.0955 90.4096C13.6591 94.9262 20.5397 96.9266 29.18 96.9266C41.753 96.9266 57.5287 96.0806 76.4883 94.3977ZM164.094 95.6671H166.594V93.1671V5V2.5H164.094H86.4632H83.9632V5V93.1671V95.6671H86.4632H109.37H111.87V93.1671V25.1334H138.686V93.1671V95.6671H141.186H164.094ZM257.055 95.6671H259.555V93.1671V5V2.5H257.055H232.875H231.415L230.698 3.77196L204.832 49.6373V5V2.5H202.332H179.425H176.925V5V93.1671V95.6671H179.425H203.605H205.065L205.782 94.3951L231.648 48.5298V93.1671V95.6671H234.148H257.055Z" fill="white" stroke="#3C9D63" stroke-width="5"/>
<mask id="path-2-outside-1_2_38" maskUnits="userSpaceOnUse" x="43.3906" y="55.1794" width="323" height="62" fill="black">
<rect fill="white" x="43.3906" y="55.1794" width="323" height="62"/>
<path d="M85.4787 60.1794C86.6907 60.1794 88.8723 60.4193 92.0236 60.8991V70.6155H89.1147C88.3875 70.6155 87.733 70.8554 87.1513 71.3352C86.5695 71.767 86.1332 72.2469 85.8423 72.7747L78.9337 85.7298L93.1144 111.28H79.2973L68.0255 90.7679H61.4805V111.28H48.3906V60.8991H61.4805V80.6917H68.0255L75.2976 67.0168C76.3642 65.0016 77.6732 63.3702 79.2246 62.1226C80.8245 60.8271 82.9092 60.1794 85.4787 60.1794Z"/>
<path d="M101.1 112C99.0149 112 96.5909 111.76 93.8274 111.28V101.924H96.7363C98.5786 101.924 99.5482 100.964 99.6452 99.0448L101.1 73.1345H136.006V111.28H123.28V82.8509H113.099L112.008 101.204C111.814 104.467 110.723 107.082 108.735 109.049C106.748 111.016 104.202 112 101.1 112Z"/>
<path d="M168.342 73.1345H181.795V111.28H169.069V90.4081L156.706 111.28H143.253V73.1345H155.979V94.0067L168.342 73.1345Z"/>
<path d="M214.875 87.1693V73.1345H227.601V111.28H214.875V96.8857H201.785V111.28H189.059V73.1345H201.785V87.1693H214.875Z"/>
<path d="M259.954 73.1345H273.407V111.28H260.681V90.4081L248.318 111.28H234.865V73.1345H247.591V94.0067L259.954 73.1345Z"/>
<path d="M298.851 96.8857H293.397V111.28H280.671V73.1345H293.397V87.1693H299.215L303.215 79.2522C304.669 76.1814 306.948 74.0942 310.051 72.9906C311.166 72.6067 312.232 72.4148 313.25 72.4148C314.899 72.4148 316.402 72.5348 317.759 72.7747L319.577 73.1345V82.8509H317.032C315.383 82.8509 314.171 83.5706 313.396 85.0101L309.76 92.2074L320.668 111.28H306.851L298.851 96.8857Z"/>
<path d="M339.547 101.924C342.117 101.924 345.025 101.444 348.274 100.484V96.1659H337.729C337.002 96.1659 336.396 96.4058 335.911 96.8857C335.426 97.3655 335.184 97.9652 335.184 98.685V99.4047C335.184 100.124 335.426 100.724 335.911 101.204C336.396 101.684 337.002 101.924 337.729 101.924H339.547ZM326.094 73.8543C334.966 72.8946 342.965 72.4148 350.092 72.4148C353.388 72.4148 356.031 73.3984 358.018 75.3657C360.006 77.333 361 79.948 361 83.2108V111.28H349.728L349.001 107.682C346.722 109.169 344.371 110.273 341.947 110.992C339.571 111.664 337.559 112 335.911 112H333.366C330.069 112 327.427 111.016 325.439 109.049C323.451 107.082 322.458 104.467 322.458 101.204V97.9653C322.458 94.7025 323.451 92.0875 325.439 90.1202C327.427 88.1529 330.069 87.1693 333.366 87.1693H348.274V84.2904C348.274 83.5706 348.031 82.9709 347.546 82.491C347.062 82.0112 346.456 81.7713 345.728 81.7713C342.577 81.7713 339.087 81.9153 335.257 82.2031C331.475 82.491 328.421 82.707 326.094 82.8509V73.8543Z"/>
</mask>
<path d="M85.4787 60.1794C86.6907 60.1794 88.8723 60.4193 92.0236 60.8991V70.6155H89.1147C88.3875 70.6155 87.733 70.8554 87.1513 71.3352C86.5695 71.767 86.1332 72.2469 85.8423 72.7747L78.9337 85.7298L93.1144 111.28H79.2973L68.0255 90.7679H61.4805V111.28H48.3906V60.8991H61.4805V80.6917H68.0255L75.2976 67.0168C76.3642 65.0016 77.6732 63.3702 79.2246 62.1226C80.8245 60.8271 82.9092 60.1794 85.4787 60.1794Z" fill="white"/>
<path d="M101.1 112C99.0149 112 96.5909 111.76 93.8274 111.28V101.924H96.7363C98.5786 101.924 99.5482 100.964 99.6452 99.0448L101.1 73.1345H136.006V111.28H123.28V82.8509H113.099L112.008 101.204C111.814 104.467 110.723 107.082 108.735 109.049C106.748 111.016 104.202 112 101.1 112Z" fill="white"/>
<path d="M168.342 73.1345H181.795V111.28H169.069V90.4081L156.706 111.28H143.253V73.1345H155.979V94.0067L168.342 73.1345Z" fill="white"/>
<path d="M214.875 87.1693V73.1345H227.601V111.28H214.875V96.8857H201.785V111.28H189.059V73.1345H201.785V87.1693H214.875Z" fill="white"/>
<path d="M259.954 73.1345H273.407V111.28H260.681V90.4081L248.318 111.28H234.865V73.1345H247.591V94.0067L259.954 73.1345Z" fill="white"/>
<path d="M298.851 96.8857H293.397V111.28H280.671V73.1345H293.397V87.1693H299.215L303.215 79.2522C304.669 76.1814 306.948 74.0942 310.051 72.9906C311.166 72.6067 312.232 72.4148 313.25 72.4148C314.899 72.4148 316.402 72.5348 317.759 72.7747L319.577 73.1345V82.8509H317.032C315.383 82.8509 314.171 83.5706 313.396 85.0101L309.76 92.2074L320.668 111.28H306.851L298.851 96.8857Z" fill="white"/>
<path d="M339.547 101.924C342.117 101.924 345.025 101.444 348.274 100.484V96.1659H337.729C337.002 96.1659 336.396 96.4058 335.911 96.8857C335.426 97.3655 335.184 97.9652 335.184 98.685V99.4047C335.184 100.124 335.426 100.724 335.911 101.204C336.396 101.684 337.002 101.924 337.729 101.924H339.547ZM326.094 73.8543C334.966 72.8946 342.965 72.4148 350.092 72.4148C353.388 72.4148 356.031 73.3984 358.018 75.3657C360.006 77.333 361 79.948 361 83.2108V111.28H349.728L349.001 107.682C346.722 109.169 344.371 110.273 341.947 110.992C339.571 111.664 337.559 112 335.911 112H333.366C330.069 112 327.427 111.016 325.439 109.049C323.451 107.082 322.458 104.467 322.458 101.204V97.9653C322.458 94.7025 323.451 92.0875 325.439 90.1202C327.427 88.1529 330.069 87.1693 333.366 87.1693H348.274V84.2904C348.274 83.5706 348.031 82.9709 347.546 82.491C347.062 82.0112 346.456 81.7713 345.728 81.7713C342.577 81.7713 339.087 81.9153 335.257 82.2031C331.475 82.491 328.421 82.707 326.094 82.8509V73.8543Z" fill="white"/>
<path d="M85.4787 60.1794C86.6907 60.1794 88.8723 60.4193 92.0236 60.8991V70.6155H89.1147C88.3875 70.6155 87.733 70.8554 87.1513 71.3352C86.5695 71.767 86.1332 72.2469 85.8423 72.7747L78.9337 85.7298L93.1144 111.28H79.2973L68.0255 90.7679H61.4805V111.28H48.3906V60.8991H61.4805V80.6917H68.0255L75.2976 67.0168C76.3642 65.0016 77.6732 63.3702 79.2246 62.1226C80.8245 60.8271 82.9092 60.1794 85.4787 60.1794Z" stroke="#3C9D63" stroke-width="10" mask="url(#path-2-outside-1_2_38)"/>
<path d="M101.1 112C99.0149 112 96.5909 111.76 93.8274 111.28V101.924H96.7363C98.5786 101.924 99.5482 100.964 99.6452 99.0448L101.1 73.1345H136.006V111.28H123.28V82.8509H113.099L112.008 101.204C111.814 104.467 110.723 107.082 108.735 109.049C106.748 111.016 104.202 112 101.1 112Z" stroke="#3C9D63" stroke-width="10" mask="url(#path-2-outside-1_2_38)"/>
<path d="M168.342 73.1345H181.795V111.28H169.069V90.4081L156.706 111.28H143.253V73.1345H155.979V94.0067L168.342 73.1345Z" stroke="#3C9D63" stroke-width="10" mask="url(#path-2-outside-1_2_38)"/>
<path d="M214.875 87.1693V73.1345H227.601V111.28H214.875V96.8857H201.785V111.28H189.059V73.1345H201.785V87.1693H214.875Z" stroke="#3C9D63" stroke-width="10" mask="url(#path-2-outside-1_2_38)"/>
<path d="M259.954 73.1345H273.407V111.28H260.681V90.4081L248.318 111.28H234.865V73.1345H247.591V94.0067L259.954 73.1345Z" stroke="#3C9D63" stroke-width="10" mask="url(#path-2-outside-1_2_38)"/>
<path d="M298.851 96.8857H293.397V111.28H280.671V73.1345H293.397V87.1693H299.215L303.215 79.2522C304.669 76.1814 306.948 74.0942 310.051 72.9906C311.166 72.6067 312.232 72.4148 313.25 72.4148C314.899 72.4148 316.402 72.5348 317.759 72.7747L319.577 73.1345V82.8509H317.032C315.383 82.8509 314.171 83.5706 313.396 85.0101L309.76 92.2074L320.668 111.28H306.851L298.851 96.8857Z" stroke="#3C9D63" stroke-width="10" mask="url(#path-2-outside-1_2_38)"/>
<path d="M339.547 101.924C342.117 101.924 345.025 101.444 348.274 100.484V96.1659H337.729C337.002 96.1659 336.396 96.4058 335.911 96.8857C335.426 97.3655 335.184 97.9652 335.184 98.685V99.4047C335.184 100.124 335.426 100.724 335.911 101.204C336.396 101.684 337.002 101.924 337.729 101.924H339.547ZM326.094 73.8543C334.966 72.8946 342.965 72.4148 350.092 72.4148C353.388 72.4148 356.031 73.3984 358.018 75.3657C360.006 77.333 361 79.948 361 83.2108V111.28H349.728L349.001 107.682C346.722 109.169 344.371 110.273 341.947 110.992C339.571 111.664 337.559 112 335.911 112H333.366C330.069 112 327.427 111.016 325.439 109.049C323.451 107.082 322.458 104.467 322.458 101.204V97.9653C322.458 94.7025 323.451 92.0875 325.439 90.1202C327.427 88.1529 330.069 87.1693 333.366 87.1693H348.274V84.2904C348.274 83.5706 348.031 82.9709 347.546 82.491C347.062 82.0112 346.456 81.7713 345.728 81.7713C342.577 81.7713 339.087 81.9153 335.257 82.2031C331.475 82.491 328.421 82.707 326.094 82.8509V73.8543Z" stroke="#3C9D63" stroke-width="10" mask="url(#path-2-outside-1_2_38)"/>
</svg>
